<?xml version="1.0" standalone="no"?>
<!DOCTYPE svg PUBLIC "-//W3C//DTD SVG 20010904//EN"
 "http://www.w3.org/TR/2001/REC-SVG-20010904/DTD/svg10.dtd">
<svg version="1.0" xmlns="http://www.w3.org/2000/svg"
 width="300.000000pt" height="300.000000pt" viewBox="0 0 300.000000 300.000000"
 preserveAspectRatio="xMidYMid meet">
<metadata>
Created by potrace 1.10, written by Peter Selinger 2001-2011
</metadata>
<g transform="translate(0.000000,300.000000) scale(0.050000,-0.050000)"
fill="#000000" stroke="none">
<path d="M1931 4920 c-809 -274 -839 -294 -770 -502 20 -60 20 -90 2 -129 -36
-80 -27 -168 26 -259 33 -57 48 -110 46 -166 -3 -75 23 -122 292 -523 390
-583 414 -597 793 -431 263 115 229 122 520 -112 452 -363 398 -368 1074 107
241 170 520 363 620 431 198 133 266 227 266 369 0 139 -30 169 -900 898 -191
161 -299 185 -481 109 -22 -10 -44 16 -83 95 -55 112 -169 193 -271 193 -24 0
-49 10 -56 21 -7 12 -49 48 -94 80 -135 98 -191 88 -984 -181z m909 188 c86
-35 164 -124 357 -412 113 -170 116 -176 74 -176 -17 0 -25 -12 -19 -28 6 -17
-8 -32 -38 -39 -27 -7 -96 -58 -154 -113 -115 -110 -130 -115 -197 -68 -29 20
-65 27 -99 19 -40 -9 -46 -7 -24 8 38 26 0 27 -40 1 -24 -15 -24 -19 -2 -20
20 0 25 -20 17 -78 -10 -71 3 -100 147 -325 87 -136 158 -253 158 -261 0 -7
16 -16 35 -20 36 -7 -747 -343 -888 -381 -195 -52 -209 -39 -636 640 -85 135
-158 245 -164 245 -5 0 -3 -11 5 -25 31 -56 336 -549 371 -599 49 -71 48 -72
-31 -72 -83 0 -113 31 -232 236 -47 83 -120 200 -160 260 -83 124 -143 236
-94 175 38 -47 45 -44 50 17 3 38 -4 49 -25 41 -19 -7 -25 -1 -18 18 6 16 1
29 -12 29 -15 0 -19 17 -11 45 10 35 8 38 -8 15 -25 -35 -26 -8 -4 50 14 35
24 27 81 -65 35 -58 69 -105 74 -105 6 0 -8 29 -30 65 -254 413 -252 415 576
691 335 112 612 200 616 196 4 -4 -65 -32 -154 -62 -88 -29 -161 -58 -161 -64
0 -31 367 -584 382 -575 10 6 13 -2 6 -18 -6 -16 -2 -34 9 -41 23 -15 410 138
419 166 4 11 18 15 31 10 26 -10 30 89 5 129 -22 35 20 42 65 11 52 -37 55
-79 8 -106 -46 -27 -26 -27 52 0 80 28 79 38 -13 164 -41 57 -92 130 -112 162
-28 44 -40 51 -54 30 -13 -20 -17 -21 -18 -3 0 14 -22 25 -48 25 -27 0 -53 11
-59 25 -5 14 -11 7 -13 -15 -3 -40 -3 -40 -20 0 -27 63 -24 155 5 145 14 -5
23 -30 21 -57 -2 -34 0 -37 7 -10 10 33 18 30 69 -30 32 -37 58 -57 58 -44 0
99 -214 221 -347 197 -48 -8 -54 -7 -23 8 60 28 121 24 210 -11z m-140 -47 c0
-10 -20 -25 -43 -32 -57 -18 -249 -141 -301 -193 -55 -55 -95 -18 -56 54 20
37 32 44 43 25 12 -18 16 -15 17 10 0 19 -11 36 -25 36 -33 2 284 114 330 117
19 1 35 -6 35 -17z m56 -141 c-7 -47 -4 -55 18 -37 20 17 26 14 26 -9 0 -50
-23 -95 -42 -83 -10 6 -29 -14 -43 -45 -24 -53 -110 -144 -138 -145 -26 -2 -3
65 30 89 31 23 30 26 -11 37 -25 6 -54 2 -66 -11 -14 -15 -10 -18 15 -10 63
23 36 -15 -38 -52 -40 -20 -74 -33 -76 -30 -102 149 -102 163 0 196 38 13 69
31 69 41 0 10 -16 12 -35 6 -19 -7 -3 11 35 38 58 42 73 46 87 22 13 -23 23
-24 44 -6 16 13 24 32 18 41 -6 10 17 18 52 18 59 0 63 -4 55 -60z m392 28
c18 -7 27 -19 22 -28 -5 -8 6 -14 24 -13 19 2 52 -26 75 -62 23 -36 78 -123
124 -193 54 -83 77 -136 66 -153 -19 -31 -4 -65 22 -49 9 6 11 27 4 46 -11 30
-8 31 22 6 23 -18 28 -35 15 -48 -13 -13 -9 -36 12 -67 17 -26 24 -47 15 -47
-8 0 0 -17 19 -38 40 -44 8 -81 -34 -38 -50 50 -234 322 -234 346 0 13 -22 44
-49 69 -28 26 -46 53 -41 62 5 8 -4 26 -21 40 -17 14 -27 36 -22 49 5 13 -13
48 -40 77 -48 52 -41 65 21 41z m-204 -112 c-13 -13 -24 -33 -24 -45 0 -12 7
-11 16 3 26 41 69 -5 75 -80 5 -61 -3 -75 -54 -100 -48 -23 -54 -31 -27 -41
40 -15 75 2 59 28 -6 11 -1 19 11 19 13 0 20 -20 16 -45 -16 -112 -443 -214
-495 -118 -20 38 -17 43 23 45 25 1 78 5 116 9 39 3 104 -1 145 -10 51 -11 71
-10 62 4 -8 14 3 17 30 10 29 -8 43 -2 43 17 0 30 -43 38 -68 13 -28 -27 -331
-18 -308 10 12 14 38 25 60 25 21 0 33 8 27 18 -20 33 125 102 189 89 33 -7
54 -20 48 -31 -7 -10 7 -7 30 7 57 36 42 67 -33 67 -83 0 -94 17 -54 78 22 34
52 52 85 52 41 0 47 -5 28 -24z m792 -161 c45 -25 281 -215 524 -423 651 -557
648 -541 170 -867 -287 -196 -372 -256 -710 -496 -455 -323 -419 -322 -777
-36 l-267 214 53 28 c51 26 59 23 145 -49 474 -397 370 -404 1046 73 270 191
544 384 610 431 66 46 131 82 146 78 14 -3 16 0 5 5 -12 6 -21 19 -21 30 0 11
9 14 21 7 118 -73 -84 165 -312 368 -154 137 -369 328 -479 426 -221 196 -263
216 -361 170 -59 -28 -147 0 -107 34 77 64 205 67 314 7z m404 -532 c276 -246
498 -458 494 -470 -7 -21 -57 -59 -284 -214 -55 -38 -278 -195 -495 -349 -500
-354 -505 -357 -565 -342 -27 7 -142 86 -255 176 -113 90 -209 166 -213 170
-17 13 15 28 66 32 30 2 60 15 68 27 8 13 145 82 304 155 374 170 386 183 419
455 23 189 23 216 -8 274 -31 62 -31 67 4 99 20 19 25 26 10 16 -68 -46 -37
12 41 76 96 79 142 96 83 31 -39 -43 -56 -99 -30 -99 9 0 27 14 41 30 14 17
34 30 46 30 11 0 4 -18 -16 -40 -54 -59 -5 -49 51 11 42 45 43 49 9 36 -37
-13 -38 -11 -10 23 28 35 27 35 -20 10 -46 -24 -48 -24 -23 7 20 23 21 33 4
33 -13 0 -18 9 -11 20 24 40 -18 19 -103 -51 -48 -40 -87 -63 -87 -52 0 12 9
26 20 33 12 7 15 23 7 35 -7 12 13 43 45 69 36 29 43 42 20 33 -27 -10 -34 -7
-24 10 8 12 4 23 -8 23 -12 0 -16 10 -8 23 9 15 5 18 -9 9 -13 -8 -19 -23 -13
-32 6 -9 1 -23 -12 -31 -16 -10 -14 -19 5 -31 16 -11 18 -18 4 -18 -55 0 -93
100 -54 145 37 41 37 41 -16 7 -56 -36 -98 -1 -53 44 16 16 8 18 -24 10 -33
-9 -42 -5 -31 12 44 71 132 10 631 -435z m-686 183 c239 -342 256 -398 151
-495 -89 -83 -472 -235 -529 -210 l-46 20 47 -9 c53 -10 328 99 447 178 99 66
125 130 88 216 -31 72 -100 167 -81 111 7 -18 1 -40 -13 -48 -17 -11 -21 0
-13 40 8 43 -13 88 -97 211 -102 147 -120 180 -99 180 4 0 69 -88 145 -194z
m158 51 c36 -71 21 -255 -16 -188 -14 24 -13 42 2 57 12 12 22 40 22 63 -1 31
-5 34 -18 14 -12 -19 -21 -21 -31 -5 -7 12 -2 22 11 22 14 0 6 20 -19 46 -24
26 -38 53 -30 60 19 20 44 -2 79 -69z m-385 -7 c26 -26 26 -178 1 -208 -26
-29 -137 34 -132 74 7 50 -1 53 -62 22 -24 -12 -3 15 46 59 102 92 106 94 147
53z m-250 -243 c29 -48 60 -87 68 -87 9 0 -8 37 -37 83 -42 67 -45 80 -17 69
53 -20 370 -107 444 -122 38 -8 65 -25 65 -43 0 -16 9 -24 21 -16 29 17 -35
-131 -74 -175 -18 -19 -40 -30 -49 -24 -10 5 -42 -13 -72 -40 -65 -61 -149
-83 -204 -53 -50 27 -81 27 -42 0 25 -17 23 -20 -10 -14 -22 4 -38 17 -36 29
3 12 -11 20 -29 19 -103 -9 -251 374 -166 427 18 10 16 18 -7 27 -23 8 -33 -1
-34 -33 -2 -42 -3 -41 -18 6 -15 47 -16 45 -20 -20 -3 -40 -9 -54 -14 -33 -41
158 135 158 231 0z m-1630 -365 c7 15 7 7 1 -20 -9 -35 -6 -43 13 -31 16 10
20 7 11 -8 -8 -13 -3 -23 10 -23 14 0 19 -6 12 -13 -17 -17 65 -130 86 -117 9
5 12 -10 6 -35 -6 -31 -4 -37 9 -19 13 18 25 1 43 -59 17 -54 31 -75 41 -58
11 17 20 7 29 -29 8 -30 10 -58 6 -63 -9 -8 -252 352 -301 448 -39 75 -43 116
-5 47 20 -36 30 -41 39 -20z m2273 -92 c-34 -163 -24 -157 -1080 -613 -426
-184 -510 -204 -616 -149 -131 69 -309 323 -284 407 9 31 17 40 18 20 1 -19
11 -35 22 -35 11 0 21 16 21 35 2 30 4 29 19 -5 15 -34 17 -35 19 -5 2 60 58
39 148 -55 138 -145 180 -138 829 133 294 123 605 252 691 288 87 36 172 80
190 98 44 44 50 12 23 -119z"/>
<path d="M1721 4788 c-661 -230 -655 -167 -100 -1021 342 -526 345 -530 461
-530 93 0 918 316 918 351 0 46 -309 491 -325 469 -14 -20 -15 -17 -6 11 8 26
-38 116 -155 300 -92 144 -210 332 -262 417 -53 85 -97 154 -99 154 -2 -1
-196 -69 -432 -151z m494 -98 c47 -82 85 -153 85 -158 0 -6 23 -34 50 -64 28
-30 50 -63 50 -74 0 -12 12 -35 27 -52 15 -18 61 -95 102 -172 41 -77 88 -155
104 -173 38 -43 227 -341 227 -359 0 -22 -200 -100 -222 -87 -12 7 -34 -5 -50
-27 -16 -24 -97 -63 -193 -95 -91 -30 -175 -58 -186 -63 -12 -4 -67 63 -123
148 -56 86 -122 174 -146 196 l-45 40 15 -70 c19 -91 28 -105 62 -92 15 6 37
-8 50 -31 13 -25 14 -37 2 -29 -12 7 -16 -4 -9 -30 7 -27 15 -33 25 -18 9 15
20 4 28 -29 8 -32 22 -47 36 -39 16 10 18 3 8 -23 -8 -21 -8 -31 0 -24 21 22
68 -25 68 -67 0 -50 -24 -48 -61 5 -16 23 -48 66 -70 95 -83 105 -209 322
-187 322 16 0 16 9 -2 30 -13 16 -32 25 -40 20 -9 -5 -31 14 -50 43 -19 28
-25 46 -14 39 11 -7 25 -1 30 13 4 14 16 18 26 9 9 -9 4 -25 -13 -35 -32 -20
-30 -22 35 -29 39 -4 42 0 22 38 -28 53 -160 252 -167 252 -27 0 -18 -68 14
-110 23 -29 36 -58 29 -64 -6 -7 -15 -9 -18 -4 -3 4 -40 51 -82 104 -67 84
-74 102 -54 140 13 24 19 29 13 10 -12 -45 21 -66 37 -23 21 55 -77 165 -141
158 -58 -7 -77 7 -134 96 -51 79 -9 127 47 54 20 -28 33 -57 27 -65 -5 -9 1
-16 13 -16 12 0 17 -8 11 -18 -6 -9 7 -22 29 -28 59 -15 49 13 -39 115 -101
117 -92 136 96 202 84 30 191 71 238 91 46 21 105 38 130 39 25 0 68 13 95 29
96 55 124 39 215 -120z m-845 -70 c-7 -11 -27 -20 -44 -20 -27 0 -30 -21 -19
-145 9 -98 7 -135 -7 -115 -11 17 -20 75 -21 130 -1 74 -6 90 -19 60 -14 -32
-17 -33 -19 -6 0 18 23 52 52 75 55 43 98 55 77 21z m244 -695 c131 -177 210
-315 191 -333 -8 -9 -3 -12 13 -9 15 4 32 -6 37 -21 7 -18 2 -22 -15 -12 -17
11 -21 8 -12 -7 8 -13 23 -19 32 -13 25 15 145 -166 129 -192 -8 -13 -2 -30
13 -40 16 -10 18 -18 6 -18 -12 0 -39 20 -60 43 -33 38 -33 42 -4 31 24 -8 31
-4 23 16 -6 15 -23 23 -39 17 -15 -6 -28 -1 -28 12 0 13 10 17 22 10 12 -8 7
9 -11 36 -18 28 -50 55 -72 61 -21 6 -45 27 -52 47 -8 20 -30 58 -50 84 -20
26 -32 55 -26 65 6 9 -39 89 -100 177 -104 151 -121 181 -104 181 4 0 52 -61
107 -135z m1206 -372 c0 -16 -28 -34 -63 -41 -77 -15 -102 1 -29 19 28 7 52
21 52 31 0 10 9 18 20 18 11 0 20 -12 20 -27z"/>
<path d="M1580 4649 c0 -7 14 -25 30 -42 17 -17 24 -40 17 -52 -9 -14 -2 -17
19 -9 18 7 38 4 45 -7 15 -25 49 -24 49 1 0 11 -9 20 -21 20 -11 0 -42 23 -67
50 -45 48 -72 63 -72 39z"/>
<path d="M2160 4510 c0 -31 11 -50 30 -50 19 0 30 19 30 50 0 31 -11 50 -30
50 -19 0 -30 -19 -30 -50z"/>
<path d="M1806 4448 c-13 -35 28 -71 72 -63 16 3 33 18 38 33 7 20 -1 24 -23
16 -21 -8 -33 -2 -33 17 0 39 -38 37 -54 -3z"/>
<path d="M1655 4329 c-17 -17 5 -69 29 -69 10 0 32 14 49 30 16 17 21 30 10
30 -11 0 -32 5 -47 11 -16 5 -34 5 -41 -2z"/>
<path d="M2209 4318 c-7 -12 -4 -31 7 -42 25 -25 64 -4 64 35 0 34 -51 39 -71
7z"/>
<path d="M2050 4300 c-15 -25 7 -100 29 -100 19 0 41 49 41 92 0 32 -51 38
-70 8z"/>
<path d="M1800 4263 c0 -12 10 -27 22 -34 16 -10 14 -19 -4 -30 -35 -22 -9
-47 33 -32 42 17 30 100 -16 109 -19 4 -35 -2 -35 -13z"/>
<path d="M2070 4160 c-7 -11 -3 -20 8 -20 11 0 16 -13 9 -30 -16 -43 20 -37
63 10 20 22 33 41 28 41 -4 1 -28 6 -52 10 -24 5 -49 0 -56 -11z"/>
<path d="M1880 4043 c0 -54 71 -111 114 -92 31 13 32 16 4 23 -18 4 -42 30
-55 57 -26 58 -63 65 -63 12z"/>
<path d="M2306 4038 c-30 -30 7 -138 47 -138 41 0 56 55 30 111 -24 54 -44 60
-77 27z"/>
<path d="M2195 3886 c-19 -5 -35 -12 -35 -17 0 -24 49 -109 63 -109 26 0 20
35 -8 47 -15 6 -11 10 10 11 37 2 50 42 14 42 -12 0 -16 9 -9 20 7 11 10 19 6
18 -3 -2 -22 -7 -41 -12z"/>
<path d="M1984 3807 c9 -78 56 -85 56 -9 0 43 -10 62 -31 62 -23 0 -30 -16
-25 -53z"/>
<path d="M2600 3760 c0 -11 9 -20 20 -20 11 0 20 -9 20 -19 0 -11 -13 -15 -30
-8 -32 12 -42 -23 -12 -42 27 -16 64 40 50 76 -13 36 -48 45 -48 13z"/>
<path d="M2485 3607 c-30 -12 -34 -67 -5 -67 11 0 20 9 20 20 0 11 7 18 15 15
8 -3 18 4 22 15 7 23 -17 31 -52 17z"/>
<path d="M2884 4377 c-59 -22 -103 -44 -99 -48 7 -8 217 67 233 83 18 17 -32
4 -134 -35z"/>
<path d="M1460 3720 c0 -11 9 -20 20 -20 11 0 20 -12 20 -28 0 -15 13 -38 30
-52 16 -13 26 -31 21 -38 -15 -25 24 -67 48 -53 17 11 14 26 -12 54 -19 21
-37 52 -39 68 -8 51 -88 115 -88 69z"/>
<path d="M3203 4846 c-24 -45 -2 -80 36 -57 10 7 15 -10 9 -39 -5 -27 0 -50
10 -50 38 0 39 32 4 111 -34 76 -36 77 -59 35z"/>
<path d="M3901 4178 c-43 -35 -58 -59 -40 -60 16 -2 53 -5 82 -9 36 -4 65 8
90 37 37 44 37 44 -5 9 -58 -49 -82 -44 -36 8 41 47 10 36 -62 -21 -28 -22
-25 -15 8 23 67 76 46 83 -37 13z"/>
<path d="M4040 4110 c-30 -36 2 -40 37 -5 20 20 22 17 11 -13 -10 -27 -8 -34
9 -24 12 8 23 6 23 -3 0 -10 13 -18 29 -18 21 0 17 13 -15 46 -52 55 -61 56
-94 17z"/>
<path d="M2959 3148 c-14 -16 -37 -25 -52 -20 -42 17 -32 -4 15 -29 33 -18 50
-15 85 14 41 35 41 34 -2 -15 l-45 -51 48 -26 c26 -14 59 -46 73 -72 13 -26
37 -52 52 -57 22 -9 21 1 -3 49 -17 32 -39 59 -48 59 -9 0 -14 21 -11 46 10
93 -64 161 -112 102z"/>
<path d="M3060 4106 c0 -35 122 -92 146 -68 14 14 15 29 3 40 -27 26 -149 48
-149 28z"/>
<path d="M3520 3704 c-27 -19 -53 -41 -57 -49 -3 -8 -15 -10 -25 -4 -10 6 -18
-16 -18 -50 0 -33 3 -61 7 -61 17 0 113 100 113 117 0 10 14 24 30 30 30 12
43 54 15 52 -8 -1 -37 -16 -65 -35z"/>
<path d="M3361 3535 c1 -77 6 -94 19 -65 24 56 24 170 0 170 -11 0 -19 -47
-19 -105z"/>
<path d="M3245 3595 l-64 -21 64 -35 c44 -23 63 -47 58 -72 -4 -20 0 -30 9
-21 19 18 29 175 11 172 -7 -1 -42 -11 -78 -23z"/>
<path d="M1721 3241 c-26 -16 -25 -28 4 -89 50 -105 119 -178 138 -147 24 37
20 55 -11 55 -34 0 -56 75 -25 87 13 6 8 11 -10 11 -35 2 -64 54 -46 84 15 23
-13 23 -50 -1z"/>
<path d="M2135 3065 c-25 -29 -46 -165 -26 -165 4 0 45 17 91 38 83 37 84 39
40 62 -35 19 -48 19 -60 0 -9 -14 -26 -19 -38 -11 -15 9 -8 26 21 49 26 21 35
41 23 48 -11 7 -34 -2 -51 -21z"/>
<path d="M1781 2335 c-174 -90 -173 -557 1 -653 123 -68 233 53 252 277 24
284 -94 458 -253 376z m158 -140 c52 -149 7 -420 -72 -431 -57 -8 -87 80 -87
260 0 230 100 338 159 171z"/>
<path d="M2695 2338 c-45 -26 -53 -566 -9 -626 30 -41 188 -65 232 -35 46 31
10 83 -58 83 -65 0 -100 52 -100 151 0 43 9 49 70 49 57 0 70 8 70 40 0 33
-13 40 -72 40 -71 0 -73 2 -60 63 6 34 12 83 12 110 0 39 10 47 61 47 66 0
103 52 57 82 -38 24 -160 22 -203 -4z"/>
<path d="M3692 2329 c-47 -47 -132 -422 -132 -585 0 -122 112 -102 124 22 10
106 156 109 156 5 0 -47 11 -76 31 -84 62 -24 72 21 49 205 -47 371 -132 533
-228 437z m126 -354 c2 -48 -5 -55 -59 -55 -49 0 -60 7 -52 35 5 19 15 71 22
115 25 157 37 168 63 60 13 -55 25 -125 26 -155z"/>
<path d="M4012 2328 c-34 -89 -12 -601 27 -637 174 -158 379 262 250 511 -65
125 -246 208 -277 126z m203 -168 c74 -146 37 -360 -70 -395 -19 -6 -25 51
-25 245 0 281 16 306 95 150z"/>
<path d="M4456 2346 c-68 -18 -78 -572 -12 -639 37 -37 194 -57 234 -30 49 33
9 83 -65 83 -76 0 -93 24 -93 132 0 64 4 68 70 68 57 0 70 8 70 40 0 32 -13
40 -70 40 -68 0 -70 2 -70 78 0 115 16 142 83 142 65 0 100 53 55 82 -29 18
-141 20 -202 4z"/>
<path d="M1244 2316 c-37 -37 -33 -576 5 -627 57 -77 102 -13 97 137 -4 119
-1 131 40 142 90 24 94 19 94 -137 0 -154 22 -198 72 -147 51 50 11 646 -42
646 -36 0 -40 -13 -40 -140 l0 -140 -67 -6 -67 -7 14 122 c18 155 -33 230
-106 157z"/>
<path d="M2126 2305 c-30 -66 -8 -626 25 -638 76 -29 95 31 80 252 -16 239 -3
244 70 25 69 -211 103 -213 152 -10 l37 156 10 -210 c8 -169 16 -210 40 -210
74 0 41 656 -34 666 -53 8 -74 -28 -106 -186 -35 -172 -41 -173 -94 -9 -65
198 -136 263 -180 164z"/>
<path d="M3026 2305 c-30 -66 -8 -626 25 -638 76 -29 95 31 80 252 -16 239 -3
244 70 25 69 -211 103 -213 152 -10 l37 156 6 -199 c5 -189 23 -246 69 -218
23 14 15 586 -9 632 -50 98 -118 30 -156 -155 -35 -172 -41 -173 -94 -9 -65
198 -136 263 -180 164z"/>
<path d="M2040 1481 c0 -10 9 -24 20 -31 11 -7 20 -75 20 -153 0 -211 67 -196
76 18 3 80 14 145 25 145 10 0 19 9 19 20 0 11 -36 20 -80 20 -44 0 -80 -8
-80 -19z"/>
<path d="M2380 1330 c0 -154 4 -172 35 -166 30 6 35 30 35 166 0 136 -5 160
-35 166 -31 6 -35 -12 -35 -166z"/>
<path d="M2640 1330 c0 -132 6 -170 28 -170 36 0 55 51 40 109 -8 36 -1 49 36
59 l46 14 -45 18 c-56 23 -59 80 -5 94 65 17 46 46 -30 46 l-70 0 0 -170z"/>
<path d="M2960 1330 c0 -138 6 -170 30 -170 22 0 30 22 30 80 0 58 8 80 30 80
17 0 30 9 30 20 0 11 -13 20 -30 20 -19 0 -30 19 -30 50 0 37 11 50 40 50 22
0 40 9 40 20 0 11 -31 20 -70 20 l-70 0 0 -170z"/>
<path d="M3280 1330 c0 -138 6 -170 30 -170 24 0 30 32 30 170 0 138 -6 170
-30 170 -24 0 -30 -32 -30 -170z"/>
<path d="M3540 1330 c0 -196 52 -257 64 -75 l6 95 31 -89 c53 -149 79 -126 79
67 0 101 -8 172 -20 172 -11 0 -20 -47 -21 -105 l-1 -105 -40 105 c-63 163
-98 140 -98 -65z"/>
</g>
</svg>
